<svg width="47" height="47" viewBox="0 0 47 47" fill="none" xmlns="http://www.w3.org/2000/svg">
<path d="M39.4099 39.4099L7.59012 7.5901M39.4099 39.4099C48.1967 30.6231 48.1967 16.3769 39.4099 7.5901M39.4099 39.4099C30.6231 48.1967 16.3769 48.1967 7.59007 39.4099M39.4099 39.4099C43.8033 35.0165 40.2417 24.3318 31.4549 15.5451C22.6681 6.75825 11.9835 3.1967 7.59012 7.5901M39.4099 39.4099C35.0165 43.8033 24.3318 40.2417 15.545 31.455C6.75825 22.6682 3.19672 11.9835 7.59012 7.5901M7.59012 7.5901C-1.19668 16.3769 -1.19672 30.6231 7.59007 39.4099M7.59012 7.5901C16.3769 -1.1967 30.6231 -1.1967 39.4099 7.5901M7.59007 39.4099L39.4099 7.5901" stroke="white" stroke-width="1.5"/>
</svg>
