<svg width="47" height="47" viewBox="0 0 47 47" fill="none" xmlns="http://www.w3.org/2000/svg">
<path d="M23.5 23.5V12.25M23.5 23.5H12.25M23.5 23.5L34.75 23.5M23.5 23.5L23.5 34.75M12.25 23.5C6.0368 23.5 1 18.4632 1 12.25V1H12.25C18.4632 1 23.5 6.0368 23.5 12.25M12.25 23.5C6.0368 23.5 1 28.5368 1 34.75L1 46H12.25C18.4632 46 23.5 40.9632 23.5 34.75M23.5 12.25C23.5 6.0368 28.5368 1 34.75 1L46 1V12.25C46 18.4632 40.9632 23.5 34.75 23.5M23.5 34.75C23.5 40.9632 28.5368 46 34.75 46H46V34.75C46 28.5368 40.9632 23.5 34.75 23.5M12.25 34.75L34.75 12.25M12.25 12.25L34.75 34.75" stroke="white" stroke-width="1.5"/>
</svg>
