<svg width="46" height="45" viewBox="0 0 46 45" fill="none" xmlns="http://www.w3.org/2000/svg">
<rect x="0.875" y="0.375" width="44.25" height="44.25" stroke="white" stroke-width="0.75"/>
<path d="M33.8201 21.3838L34.1933 21.3471L34.0671 20.0658L33.4855 21.2144L33.8201 21.3838ZM23.7422 11.3048L23.9115 11.6394L25.0602 11.0579L23.779 10.9316L23.7422 11.3048ZM33.4855 21.2144C32.3102 23.5356 29.9028 25.1255 27.1248 25.1255V25.8755C30.1964 25.8755 32.8566 24.1168 34.1546 21.5532L33.4855 21.2144ZM27.1248 25.1255C23.1897 25.1255 19.9998 21.9355 19.9998 18.0005H19.2498C19.2498 22.3497 22.7755 25.8755 27.1248 25.8755V25.1255ZM19.9998 18.0005C19.9998 15.2221 21.5899 12.8145 23.9115 11.6394L23.5728 10.9702C21.0088 12.2681 19.2498 14.9285 19.2498 18.0005H19.9998ZM22.6248 11.625C22.9895 11.625 23.35 11.6429 23.7054 11.678L23.779 10.9316C23.3992 10.8942 23.0142 10.875 22.6248 10.875V11.625ZM11.7498 22.5C11.7498 16.4939 16.6187 11.625 22.6248 11.625V10.875C16.2044 10.875 10.9998 16.0797 10.9998 22.5H11.7498ZM22.6248 33.375C16.6187 33.375 11.7498 28.5061 11.7498 22.5H10.9998C10.9998 28.9203 16.2044 34.125 22.6248 34.125V33.375ZM33.4998 22.5C33.4998 28.5061 28.6309 33.375 22.6248 33.375V34.125C29.0451 34.125 34.2498 28.9203 34.2498 22.5H33.4998ZM33.4469 21.4206C33.4818 21.7755 33.4998 22.1356 33.4998 22.5H34.2498C34.2498 22.111 34.2306 21.7264 34.1933 21.3471L33.4469 21.4206Z" fill="white"/>
</svg>
