<svg width="47" height="48" viewBox="0 0 47 48" fill="none" xmlns="http://www.w3.org/2000/svg">
<path fill-rule="evenodd" clip-rule="evenodd" d="M1 13.375C1 16.263 1.98929 18.9199 3.64746 21.0254H3.64453L23.5008 46.0004L43.357 21.0254H43.3525C45.0107 18.9199 46 16.263 46 13.375C46 6.54048 40.4595 1 33.625 1C29.4396 1 25.7396 3.07776 23.5 6.25807C21.2604 3.07776 17.5604 1 13.375 1C6.54048 1 1 6.54048 1 13.375Z" fill="white"/>
<path d="M3.64746 21.0254V21.7754H5.19279L4.23667 20.5614L3.64746 21.0254ZM3.64453 21.0254V20.2754H2.0901L3.05746 21.4921L3.64453 21.0254ZM23.5008 46.0004L22.9137 46.4671L23.5008 47.2055L24.0879 46.4671L23.5008 46.0004ZM43.357 21.0254L43.9441 21.4921L44.9115 20.2754H43.357V21.0254ZM43.3525 21.0254L42.7633 20.5614L41.8072 21.7754H43.3525V21.0254ZM23.5 6.25807L22.8868 6.6899L23.5 7.56069L24.1132 6.6899L23.5 6.25807ZM4.23667 20.5614C2.67893 18.5834 1.75 16.0887 1.75 13.375H0.25C0.25 16.4373 1.29964 19.2564 3.05825 21.4894L4.23667 20.5614ZM3.64453 21.7754H3.64746V20.2754H3.64453V21.7754ZM24.0879 45.5336L4.2316 20.5586L3.05746 21.4921L22.9137 46.4671L24.0879 45.5336ZM42.77 20.5586L22.9137 45.5336L24.0879 46.4671L43.9441 21.4921L42.77 20.5586ZM43.3525 21.7754H43.357V20.2754H43.3525V21.7754ZM45.25 13.375C45.25 16.0887 44.3211 18.5834 42.7633 20.5614L43.9417 21.4894C45.7004 19.2564 46.75 16.4373 46.75 13.375H45.25ZM33.625 1.75C40.0453 1.75 45.25 6.95469 45.25 13.375H46.75C46.75 6.12626 40.8737 0.25 33.625 0.25V1.75ZM24.1132 6.6899C26.2183 3.70051 29.6939 1.75 33.625 1.75V0.25C29.1854 0.25 25.2608 2.45501 22.8868 5.82625L24.1132 6.6899ZM13.375 1.75C17.3061 1.75 20.7817 3.70051 22.8868 6.6899L24.1132 5.82625C21.7392 2.45501 17.8146 0.25 13.375 0.25V1.75ZM1.75 13.375C1.75 6.95469 6.95469 1.75 13.375 1.75V0.25C6.12626 0.25 0.25 6.12626 0.25 13.375H1.75Z" fill="white"/>
</svg>
