<svg width="278" height="45" viewBox="0 0 278 45" fill="none" xmlns="http://www.w3.org/2000/svg">
<mask id="path-1-inside-1_1_278" fill="white">
<path d="M0 0H165V45H0V0Z"/>
</mask>
<path d="M0 0H165V45H0V0Z" fill="white"/>
<path d="M0 0V-0.75H-0.75V0H0ZM0 45H-0.75V45.75H0V45ZM0 0.75H165V-0.75H0V0.75ZM165 44.25H0V45.75H165V44.25ZM0.75 45V0H-0.75V45H0.75Z" fill="#231E1F" mask="url(#path-1-inside-1_1_278)"/>
<rect x="165.375" y="0.375" width="111.75" height="44.25" fill="#FFFF2C" stroke="#231E1F" stroke-width="0.75"/>
<path d="M49.485 28.62C48.705 28.62 48.02 28.475 47.43 28.185C46.84 27.885 46.375 27.465 46.035 26.925C45.705 26.375 45.52 25.74 45.48 25.02H46.995C47.055 25.71 47.3 26.255 47.73 26.655C48.17 27.045 48.755 27.24 49.485 27.24C50.175 27.24 50.725 27.105 51.135 26.835C51.555 26.555 51.765 26.14 51.765 25.59C51.765 25.24 51.655 24.955 51.435 24.735C51.215 24.515 50.94 24.345 50.61 24.225C50.29 24.095 49.84 23.95 49.26 23.79C48.53 23.59 47.935 23.395 47.475 23.205C47.015 23.005 46.62 22.705 46.29 22.305C45.97 21.905 45.81 21.375 45.81 20.715C45.81 20.165 45.96 19.675 46.26 19.245C46.57 18.815 46.995 18.48 47.535 18.24C48.075 18 48.695 17.88 49.395 17.88C50.105 17.88 50.735 18.01 51.285 18.27C51.835 18.53 52.27 18.9 52.59 19.38C52.92 19.86 53.105 20.415 53.145 21.045H51.63C51.58 20.505 51.355 20.075 50.955 19.755C50.555 19.425 50.035 19.26 49.395 19.26C48.765 19.26 48.27 19.395 47.91 19.665C47.55 19.925 47.37 20.275 47.37 20.715C47.37 21.065 47.48 21.35 47.7 21.57C47.92 21.79 48.19 21.96 48.51 22.08C48.84 22.2 49.29 22.33 49.86 22.47C50.62 22.66 51.225 22.85 51.675 23.04C52.135 23.23 52.53 23.53 52.86 23.94C53.19 24.34 53.355 24.885 53.355 25.575C53.355 26.205 53.19 26.75 52.86 27.21C52.53 27.66 52.07 28.01 51.48 28.26C50.9 28.5 50.235 28.62 49.485 28.62ZM58.1073 28.62C57.3373 28.62 56.6673 28.445 56.0973 28.095C55.5373 27.735 55.1073 27.26 54.8073 26.67C54.5073 26.08 54.3573 25.43 54.3573 24.72C54.3573 24.01 54.5073 23.36 54.8073 22.77C55.1073 22.18 55.5373 21.71 56.0973 21.36C56.6673 21 57.3373 20.82 58.1073 20.82C58.6973 20.82 59.2473 20.935 59.7573 21.165C60.2673 21.385 60.6873 21.705 61.0173 22.125C61.3473 22.535 61.5473 23.02 61.6173 23.58H60.1623C60.0923 23.15 59.8623 22.795 59.4723 22.515C59.0923 22.235 58.6473 22.095 58.1373 22.095C57.4073 22.095 56.8473 22.34 56.4573 22.83C56.0673 23.32 55.8723 23.95 55.8723 24.72C55.8723 25.48 56.0673 26.11 56.4573 26.61C56.8573 27.1 57.4173 27.345 58.1373 27.345C58.6473 27.345 59.0823 27.22 59.4423 26.97C59.8123 26.72 60.0573 26.38 60.1773 25.95H61.6173C61.4973 26.75 61.1173 27.395 60.4773 27.885C59.8473 28.375 59.0573 28.62 58.1073 28.62ZM62.9954 20.94H64.4504V28.5H62.9954V20.94ZM64.5254 17.775V19.605H62.9054V17.775H64.5254ZM73.1463 26.04C73.0063 26.82 72.6213 27.445 71.9913 27.915C71.3613 28.385 70.5813 28.62 69.6513 28.62C68.8913 28.62 68.2213 28.44 67.6413 28.08C67.0713 27.72 66.6313 27.24 66.3213 26.64C66.0113 26.04 65.8563 25.385 65.8563 24.675C65.8563 23.965 66.0013 23.32 66.2913 22.74C66.5813 22.15 67.0013 21.685 67.5513 21.345C68.1013 20.995 68.7513 20.82 69.5013 20.82C70.2513 20.82 70.8963 20.985 71.4363 21.315C71.9763 21.635 72.3863 22.07 72.6663 22.62C72.9463 23.16 73.0863 23.755 73.0863 24.405C73.0863 24.605 73.0763 24.795 73.0563 24.975H67.2813C67.3413 25.695 67.5863 26.275 68.0163 26.715C68.4463 27.155 68.9913 27.375 69.6513 27.375C70.2013 27.375 70.6513 27.26 71.0013 27.03C71.3513 26.8 71.5813 26.47 71.6913 26.04H73.1463ZM69.5013 21.99C68.9113 21.99 68.4263 22.155 68.0463 22.485C67.6763 22.805 67.4363 23.28 67.3263 23.91H71.6163C71.5663 23.33 71.3563 22.865 70.9863 22.515C70.6163 22.165 70.1213 21.99 69.5013 21.99ZM76.0227 20.94V22.275C76.2227 21.805 76.5327 21.445 76.9527 21.195C77.3827 20.945 77.8827 20.82 78.4527 20.82C79.3027 20.82 79.9827 21.1 80.4927 21.66C81.0127 22.22 81.2727 22.95 81.2727 23.85V28.5H79.8177V24.135C79.8177 23.535 79.6527 23.05 79.3227 22.68C79.0027 22.31 78.5777 22.125 78.0477 22.125C77.4577 22.125 76.9727 22.34 76.5927 22.77C76.2127 23.2 76.0227 23.745 76.0227 24.405V28.5H74.5677V20.94H76.0227ZM86.452 28.62C85.682 28.62 85.012 28.445 84.442 28.095C83.882 27.735 83.452 27.26 83.152 26.67C82.852 26.08 82.702 25.43 82.702 24.72C82.702 24.01 82.852 23.36 83.152 22.77C83.452 22.18 83.882 21.71 84.442 21.36C85.012 21 85.682 20.82 86.452 20.82C87.042 20.82 87.592 20.935 88.102 21.165C88.612 21.385 89.032 21.705 89.362 22.125C89.692 22.535 89.892 23.02 89.962 23.58H88.507C88.437 23.15 88.207 22.795 87.817 22.515C87.437 22.235 86.992 22.095 86.482 22.095C85.752 22.095 85.192 22.34 84.802 22.83C84.412 23.32 84.217 23.95 84.217 24.72C84.217 25.48 84.412 26.11 84.802 26.61C85.202 27.1 85.762 27.345 86.482 27.345C86.992 27.345 87.427 27.22 87.787 26.97C88.157 26.72 88.402 26.38 88.522 25.95H89.962C89.842 26.75 89.462 27.395 88.822 27.885C88.192 28.375 87.402 28.62 86.452 28.62ZM98.1952 26.04C98.0552 26.82 97.6702 27.445 97.0402 27.915C96.4102 28.385 95.6302 28.62 94.7002 28.62C93.9402 28.62 93.2702 28.44 92.6902 28.08C92.1202 27.72 91.6802 27.24 91.3702 26.64C91.0602 26.04 90.9052 25.385 90.9052 24.675C90.9052 23.965 91.0502 23.32 91.3402 22.74C91.6302 22.15 92.0502 21.685 92.6002 21.345C93.1502 20.995 93.8002 20.82 94.5502 20.82C95.3002 20.82 95.9452 20.985 96.4852 21.315C97.0252 21.635 97.4352 22.07 97.7152 22.62C97.9952 23.16 98.1352 23.755 98.1352 24.405C98.1352 24.605 98.1252 24.795 98.1052 24.975H92.3302C92.3902 25.695 92.6352 26.275 93.0652 26.715C93.4952 27.155 94.0402 27.375 94.7002 27.375C95.2502 27.375 95.7002 27.26 96.0502 27.03C96.4002 26.8 96.6302 26.47 96.7402 26.04H98.1952ZM94.5502 21.99C93.9602 21.99 93.4752 22.155 93.0952 22.485C92.7252 22.805 92.4852 23.28 92.3752 23.91H96.6652C96.6152 23.33 96.4052 22.865 96.0352 22.515C95.6652 22.165 95.1702 21.99 94.5502 21.99ZM104.402 28.62C103.472 28.62 102.617 28.42 101.837 28.02C101.057 27.61 100.432 27 99.9615 26.19C99.5015 25.38 99.2715 24.4 99.2715 23.25C99.2715 22.1 99.5065 21.12 99.9765 20.31C100.447 19.5 101.072 18.895 101.852 18.495C102.632 18.085 103.482 17.88 104.402 17.88C105.192 17.88 105.917 18.03 106.577 18.33C107.237 18.62 107.777 19.03 108.197 19.56C108.617 20.09 108.872 20.695 108.962 21.375H107.327C107.237 20.755 106.912 20.25 106.352 19.86C105.802 19.46 105.147 19.26 104.387 19.26C103.697 19.26 103.087 19.415 102.557 19.725C102.027 20.035 101.612 20.49 101.312 21.09C101.022 21.68 100.877 22.4 100.877 23.25C100.877 24.1 101.022 24.825 101.312 25.425C101.612 26.015 102.027 26.465 102.557 26.775C103.087 27.085 103.697 27.24 104.387 27.24C104.897 27.24 105.367 27.15 105.797 26.97C106.237 26.79 106.592 26.54 106.862 26.22C107.142 25.89 107.307 25.525 107.357 25.125H108.932C108.862 25.805 108.617 26.41 108.197 26.94C107.787 27.47 107.252 27.885 106.592 28.185C105.932 28.475 105.202 28.62 104.402 28.62ZM113.639 22.2C112.419 22.2 111.809 23.16 111.809 25.08V28.5H110.354V20.94H111.809V22.395C111.979 21.885 112.224 21.515 112.544 21.285C112.864 21.055 113.289 20.94 113.819 20.94H114.734V22.2H113.639ZM122.468 26.04C122.328 26.82 121.943 27.445 121.313 27.915C120.683 28.385 119.903 28.62 118.973 28.62C118.213 28.62 117.543 28.44 116.963 28.08C116.393 27.72 115.953 27.24 115.643 26.64C115.333 26.04 115.178 25.385 115.178 24.675C115.178 23.965 115.323 23.32 115.613 22.74C115.903 22.15 116.323 21.685 116.873 21.345C117.423 20.995 118.073 20.82 118.823 20.82C119.573 20.82 120.218 20.985 120.758 21.315C121.298 21.635 121.708 22.07 121.988 22.62C122.268 23.16 122.408 23.755 122.408 24.405C122.408 24.605 122.398 24.795 122.378 24.975H116.603C116.663 25.695 116.908 26.275 117.338 26.715C117.768 27.155 118.313 27.375 118.973 27.375C119.523 27.375 119.973 27.26 120.323 27.03C120.673 26.8 120.903 26.47 121.013 26.04H122.468ZM118.823 21.99C118.233 21.99 117.748 22.155 117.368 22.485C116.998 22.805 116.758 23.28 116.648 23.91H120.938C120.888 23.33 120.678 22.865 120.308 22.515C119.938 22.165 119.443 21.99 118.823 21.99ZM126.8 20.82C127.44 20.82 128.005 20.94 128.495 21.18C128.985 21.41 129.365 21.74 129.635 22.17C129.905 22.59 130.04 23.075 130.04 23.625V28.5H128.585V27.27C128.405 27.68 128.09 28.01 127.64 28.26C127.2 28.5 126.695 28.62 126.125 28.62C125.355 28.62 124.735 28.41 124.265 27.99C123.795 27.57 123.56 27.02 123.56 26.34C123.56 25.62 123.825 25.05 124.355 24.63C124.885 24.2 125.6 23.985 126.5 23.985H128.075C128.245 23.985 128.37 23.945 128.45 23.865C128.54 23.785 128.585 23.675 128.585 23.535C128.585 23.065 128.42 22.69 128.09 22.41C127.77 22.13 127.325 21.99 126.755 21.99C126.245 21.99 125.81 22.13 125.45 22.41C125.1 22.69 124.915 23.025 124.895 23.415H123.545C123.585 22.925 123.75 22.485 124.04 22.095C124.33 21.695 124.715 21.385 125.195 21.165C125.675 20.935 126.21 20.82 126.8 20.82ZM126.41 27.465C127.09 27.465 127.62 27.26 128 26.85C128.39 26.44 128.585 25.885 128.585 25.185V25.005H126.635C126.135 25.005 125.735 25.125 125.435 25.365C125.145 25.595 125 25.91 125 26.31C125 26.65 125.13 26.93 125.39 27.15C125.65 27.36 125.99 27.465 126.41 27.465ZM133.978 20.94H136.213V22.2H133.978V25.98C133.978 26.38 134.078 26.69 134.278 26.91C134.488 27.13 134.778 27.24 135.148 27.24H136.213V28.5H135.028C134.258 28.5 133.648 28.28 133.198 27.84C132.748 27.4 132.523 26.795 132.523 26.025V22.2H130.978V20.94H132.523V18.57H133.978V20.94ZM144.133 26.04C143.993 26.82 143.608 27.445 142.978 27.915C142.348 28.385 141.568 28.62 140.638 28.62C139.878 28.62 139.208 28.44 138.628 28.08C138.058 27.72 137.618 27.24 137.308 26.64C136.998 26.04 136.843 25.385 136.843 24.675C136.843 23.965 136.988 23.32 137.278 22.74C137.568 22.15 137.988 21.685 138.538 21.345C139.088 20.995 139.738 20.82 140.488 20.82C141.238 20.82 141.883 20.985 142.423 21.315C142.963 21.635 143.373 22.07 143.653 22.62C143.933 23.16 144.073 23.755 144.073 24.405C144.073 24.605 144.063 24.795 144.043 24.975H138.268C138.328 25.695 138.573 26.275 139.003 26.715C139.433 27.155 139.978 27.375 140.638 27.375C141.188 27.375 141.638 27.26 141.988 27.03C142.338 26.8 142.568 26.47 142.678 26.04H144.133ZM140.488 21.99C139.898 21.99 139.413 22.155 139.033 22.485C138.663 22.805 138.423 23.28 138.313 23.91H142.603C142.553 23.33 142.343 22.865 141.973 22.515C141.603 22.165 141.108 21.99 140.488 21.99ZM148.136 28.62C147.246 28.62 146.526 28.39 145.976 27.93C145.426 27.46 145.126 26.83 145.076 26.04H146.441C146.481 26.47 146.651 26.805 146.951 27.045C147.251 27.285 147.646 27.405 148.136 27.405C148.556 27.405 148.896 27.31 149.156 27.12C149.426 26.92 149.561 26.675 149.561 26.385C149.561 26.105 149.481 25.89 149.321 25.74C149.171 25.59 148.981 25.485 148.751 25.425C148.521 25.355 148.201 25.285 147.791 25.215C147.251 25.125 146.811 25.025 146.471 24.915C146.141 24.795 145.856 24.585 145.616 24.285C145.386 23.985 145.271 23.555 145.271 22.995C145.271 22.345 145.521 21.82 146.021 21.42C146.521 21.02 147.166 20.82 147.956 20.82C148.806 20.82 149.501 21.04 150.041 21.48C150.581 21.91 150.871 22.48 150.911 23.19H149.546C149.496 22.79 149.311 22.49 148.991 22.29C148.671 22.08 148.326 21.975 147.956 21.975C147.566 21.975 147.251 22.065 147.011 22.245C146.771 22.425 146.651 22.66 146.651 22.95C146.651 23.31 146.786 23.555 147.056 23.685C147.336 23.805 147.761 23.905 148.331 23.985C148.891 24.065 149.346 24.165 149.696 24.285C150.046 24.405 150.346 24.63 150.596 24.96C150.846 25.28 150.971 25.745 150.971 26.355C150.971 27.045 150.711 27.595 150.191 28.005C149.681 28.415 148.996 28.62 148.136 28.62Z" fill="#231E1F"/>
<path d="M185.565 18H187.125V28.5H185.565V18ZM190.576 20.94V22.275C190.776 21.805 191.086 21.445 191.506 21.195C191.936 20.945 192.436 20.82 193.006 20.82C193.856 20.82 194.536 21.1 195.046 21.66C195.566 22.22 195.826 22.95 195.826 23.85V28.5H194.371V24.135C194.371 23.535 194.206 23.05 193.876 22.68C193.556 22.31 193.131 22.125 192.601 22.125C192.011 22.125 191.526 22.34 191.146 22.77C190.766 23.2 190.576 23.745 190.576 24.405V28.5H189.121V20.94H190.576ZM201.006 28.62C200.236 28.62 199.566 28.445 198.996 28.095C198.436 27.735 198.006 27.26 197.706 26.67C197.406 26.08 197.256 25.43 197.256 24.72C197.256 24.01 197.406 23.36 197.706 22.77C198.006 22.18 198.436 21.71 198.996 21.36C199.566 21 200.236 20.82 201.006 20.82C201.596 20.82 202.146 20.935 202.656 21.165C203.166 21.385 203.586 21.705 203.916 22.125C204.246 22.535 204.446 23.02 204.516 23.58H203.061C202.991 23.15 202.761 22.795 202.371 22.515C201.991 22.235 201.546 22.095 201.036 22.095C200.306 22.095 199.746 22.34 199.356 22.83C198.966 23.32 198.771 23.95 198.771 24.72C198.771 25.48 198.966 26.11 199.356 26.61C199.756 27.1 200.316 27.345 201.036 27.345C201.546 27.345 201.981 27.22 202.341 26.97C202.711 26.72 202.956 26.38 203.076 25.95H204.516C204.396 26.75 204.016 27.395 203.376 27.885C202.746 28.375 201.956 28.62 201.006 28.62ZM211.144 27.165C210.944 27.635 210.629 27.995 210.199 28.245C209.779 28.495 209.284 28.62 208.714 28.62C207.864 28.62 207.179 28.34 206.659 27.78C206.149 27.22 205.894 26.49 205.894 25.59V20.94H207.349V25.305C207.349 25.905 207.509 26.39 207.829 26.76C208.159 27.13 208.589 27.315 209.119 27.315C209.709 27.315 210.194 27.1 210.574 26.67C210.954 26.24 211.144 25.695 211.144 25.035V20.94H212.599V28.5H211.144V27.165ZM218.363 28.62C217.863 28.62 217.398 28.51 216.968 28.29C216.538 28.06 216.213 27.755 215.993 27.375V28.5H214.538V17.775H215.993V22.05C216.213 21.68 216.538 21.385 216.968 21.165C217.398 20.935 217.868 20.82 218.378 20.82C219.128 20.82 219.773 20.99 220.313 21.33C220.863 21.66 221.278 22.12 221.558 22.71C221.848 23.29 221.993 23.96 221.993 24.72C221.993 25.48 221.848 26.155 221.558 26.745C221.278 27.325 220.863 27.785 220.313 28.125C219.773 28.455 219.123 28.62 218.363 28.62ZM218.198 27.345C218.898 27.345 219.458 27.105 219.878 26.625C220.308 26.145 220.523 25.51 220.523 24.72C220.523 23.93 220.308 23.295 219.878 22.815C219.458 22.335 218.898 22.095 218.198 22.095C217.498 22.095 216.933 22.335 216.503 22.815C216.083 23.295 215.873 23.93 215.873 24.72C215.873 25.51 216.083 26.145 216.503 26.625C216.933 27.105 217.498 27.345 218.198 27.345ZM226.339 20.82C226.979 20.82 227.544 20.94 228.034 21.18C228.524 21.41 228.904 21.74 229.174 22.17C229.444 22.59 229.579 23.075 229.579 23.625V28.5H228.124V27.27C227.944 27.68 227.629 28.01 227.179 28.26C226.739 28.5 226.234 28.62 225.664 28.62C224.894 28.62 224.274 28.41 223.804 27.99C223.334 27.57 223.099 27.02 223.099 26.34C223.099 25.62 223.364 25.05 223.894 24.63C224.424 24.2 225.139 23.985 226.039 23.985H227.614C227.784 23.985 227.909 23.945 227.989 23.865C228.079 23.785 228.124 23.675 228.124 23.535C228.124 23.065 227.959 22.69 227.629 22.41C227.309 22.13 226.864 21.99 226.294 21.99C225.784 21.99 225.349 22.13 224.989 22.41C224.639 22.69 224.454 23.025 224.434 23.415H223.084C223.124 22.925 223.289 22.485 223.579 22.095C223.869 21.695 224.254 21.385 224.734 21.165C225.214 20.935 225.749 20.82 226.339 20.82ZM225.949 27.465C226.629 27.465 227.159 27.26 227.539 26.85C227.929 26.44 228.124 25.885 228.124 25.185V25.005H226.174C225.674 25.005 225.274 25.125 224.974 25.365C224.684 25.595 224.539 25.91 224.539 26.31C224.539 26.65 224.669 26.93 224.929 27.15C225.189 27.36 225.529 27.465 225.949 27.465ZM233.517 20.94H235.752V22.2H233.517V25.98C233.517 26.38 233.617 26.69 233.817 26.91C234.027 27.13 234.317 27.24 234.687 27.24H235.752V28.5H234.567C233.797 28.5 233.187 28.28 232.737 27.84C232.287 27.4 232.062 26.795 232.062 26.025V22.2H230.517V20.94H232.062V18.57H233.517V20.94ZM240.282 28.62C239.532 28.62 238.862 28.455 238.272 28.125C237.682 27.785 237.217 27.32 236.877 26.73C236.547 26.14 236.382 25.47 236.382 24.72C236.382 23.97 236.547 23.3 236.877 22.71C237.217 22.12 237.682 21.66 238.272 21.33C238.862 20.99 239.532 20.82 240.282 20.82C241.032 20.82 241.702 20.99 242.292 21.33C242.882 21.66 243.342 22.12 243.672 22.71C244.002 23.3 244.167 23.97 244.167 24.72C244.167 25.47 244.002 26.14 243.672 26.73C243.342 27.32 242.882 27.785 242.292 28.125C241.702 28.455 241.032 28.62 240.282 28.62ZM240.282 27.345C240.992 27.345 241.567 27.1 242.007 26.61C242.457 26.12 242.682 25.49 242.682 24.72C242.682 23.95 242.457 23.32 242.007 22.83C241.567 22.34 240.992 22.095 240.282 22.095C239.562 22.095 238.977 22.34 238.527 22.83C238.087 23.32 237.867 23.95 237.867 24.72C237.867 25.49 238.087 26.12 238.527 26.61C238.977 27.1 239.562 27.345 240.282 27.345ZM248.876 22.2C247.656 22.2 247.046 23.16 247.046 25.08V28.5H245.591V20.94H247.046V22.395C247.216 21.885 247.461 21.515 247.781 21.285C248.101 21.055 248.526 20.94 249.056 20.94H249.971V22.2H248.876ZM253.622 28.62C252.732 28.62 252.012 28.39 251.462 27.93C250.912 27.46 250.612 26.83 250.562 26.04H251.927C251.967 26.47 252.137 26.805 252.437 27.045C252.737 27.285 253.132 27.405 253.622 27.405C254.042 27.405 254.382 27.31 254.642 27.12C254.912 26.92 255.047 26.675 255.047 26.385C255.047 26.105 254.967 25.89 254.807 25.74C254.657 25.59 254.467 25.485 254.237 25.425C254.007 25.355 253.687 25.285 253.277 25.215C252.737 25.125 252.297 25.025 251.957 24.915C251.627 24.795 251.342 24.585 251.102 24.285C250.872 23.985 250.757 23.555 250.757 22.995C250.757 22.345 251.007 21.82 251.507 21.42C252.007 21.02 252.652 20.82 253.442 20.82C254.292 20.82 254.987 21.04 255.527 21.48C256.067 21.91 256.357 22.48 256.397 23.19H255.032C254.982 22.79 254.797 22.49 254.477 22.29C254.157 22.08 253.812 21.975 253.442 21.975C253.052 21.975 252.737 22.065 252.497 22.245C252.257 22.425 252.137 22.66 252.137 22.95C252.137 23.31 252.272 23.555 252.542 23.685C252.822 23.805 253.247 23.905 253.817 23.985C254.377 24.065 254.832 24.165 255.182 24.285C255.532 24.405 255.832 24.63 256.082 24.96C256.332 25.28 256.457 25.745 256.457 26.355C256.457 27.045 256.197 27.595 255.677 28.005C255.167 28.415 254.482 28.62 253.622 28.62Z" fill="#231E1F"/>
<path d="M21.9982 23.1482L13.5237 28.0517L13.5195 32.25L21.9982 27.349V23.1482Z" fill="#231E1F"/>
<path d="M22.8613 23.1482L31.3356 28.0517L31.34 32.25L22.8613 27.349V23.1482Z" fill="#231E1F"/>
<path d="M31.3394 17.7161L23.2695 22.3796L26.9033 24.48L31.3394 21.9169V17.7161Z" fill="#231E1F"/>
<path d="M13.5 17.7161L21.5698 22.3796L17.9361 24.48L13.5 21.9169V17.7161Z" fill="#231E1F"/>
<path d="M21.9989 12.7502L14.7191 16.9584L14.7211 16.9595L14.3105 17.197L17.9443 19.2974L21.5915 17.1858V17.1835L22.0001 16.9472L21.9989 12.7502Z" fill="#231E1F"/>
</svg>
